<svg width="56" height="13" viewBox="0 0 56 13" fill="none" xmlns="http://www.w3.org/2000/svg">
<path d="M9.5 3.77273L6.56818 12.5H2.93182L0 3.77273H3.29545L4.70454 9.54545H4.79545L6.20454 3.77273H9.5ZM9.11204 12.5V3.77273H12.2484V12.5H9.11204ZM10.6802 2.86364C10.256 2.86364 9.89235 2.72348 9.58932 2.44318C9.28629 2.16288 9.13477 1.82576 9.13477 1.43182C9.13477 1.03788 9.28629 0.700757 9.58932 0.420454C9.89235 0.140151 10.256 0 10.6802 0C11.1083 0 11.4719 0.140151 11.7711 0.420454C12.0742 0.700757 12.2257 1.03788 12.2257 1.43182C12.2257 1.82576 12.0742 2.16288 11.7711 2.44318C11.4719 2.72348 11.1083 2.86364 10.6802 2.86364ZM17.771 3.77273V6.04545H12.021V3.77273H17.771ZM13.1346 1.68182H16.271V9.69318C16.271 9.81439 16.2918 9.91667 16.3335 10C16.3751 10.0795 16.4395 10.1402 16.5267 10.1818C16.6138 10.2197 16.7255 10.2386 16.8619 10.2386C16.9566 10.2386 17.0664 10.2273 17.1914 10.2045C17.3202 10.1818 17.4149 10.1629 17.4755 10.1477L17.9301 12.3523C17.7899 12.3939 17.5892 12.4451 17.3278 12.5057C17.0702 12.5663 16.7634 12.6061 16.4073 12.625C15.6876 12.6629 15.0835 12.589 14.5948 12.4034C14.1062 12.214 13.7388 11.9167 13.4926 11.5114C13.2464 11.1061 13.127 10.5985 13.1346 9.98864V1.68182ZM21.8589 12.6591C20.9271 12.6591 20.124 12.4811 19.4498 12.125C18.7793 11.7652 18.2623 11.25 17.8986 10.5795C17.5388 9.9053 17.3589 9.09848 17.3589 8.15909C17.3589 7.25758 17.5407 6.4697 17.9043 5.79545C18.268 5.12121 18.7812 4.59659 19.4441 4.22159C20.107 3.84659 20.8892 3.65909 21.7907 3.65909C22.4498 3.65909 23.0464 3.76136 23.5805 3.96591C24.1146 4.17045 24.571 4.4678 24.9498 4.85795C25.3286 5.24432 25.6202 5.71402 25.8248 6.26705C26.0293 6.82008 26.1316 7.44318 26.1316 8.13636V8.86364H18.3361V7.13636H23.2452C23.2414 6.88636 23.1771 6.66667 23.0521 6.47727C22.9308 6.28409 22.7661 6.13447 22.5577 6.02841C22.3532 5.91856 22.1202 5.86364 21.8589 5.86364C21.6051 5.86364 21.3721 5.91856 21.16 6.02841C20.9479 6.13447 20.7774 6.2822 20.6486 6.47159C20.5236 6.66098 20.4574 6.88258 20.4498 7.13636V9C20.4498 9.2803 20.5085 9.5303 20.6259 9.75C20.7433 9.9697 20.9119 10.142 21.1316 10.267C21.3513 10.392 21.6164 10.4545 21.9271 10.4545C22.143 10.4545 22.3399 10.4242 22.518 10.3636C22.6998 10.303 22.8551 10.2159 22.9839 10.1023C23.1127 9.98485 23.2074 9.8447 23.268 9.68182H26.1316C26.0331 10.2879 25.8002 10.8144 25.4327 11.2614C25.0653 11.7045 24.5786 12.0492 23.9725 12.2955C23.3702 12.5379 22.6657 12.6591 21.8589 12.6591ZM30.3132 12.6591C29.3814 12.6591 28.5784 12.4811 27.9042 12.125C27.2337 11.7652 26.7167 11.25 26.353 10.5795C25.9932 9.9053 25.8132 9.09848 25.8132 8.15909C25.8132 7.25758 25.9951 6.4697 26.3587 5.79545C26.7223 5.12121 27.2356 4.59659 27.8985 4.22159C28.5614 3.84659 29.3436 3.65909 30.2451 3.65909C30.9042 3.65909 31.5007 3.76136 32.0348 3.96591C32.5689 4.17045 33.0254 4.4678 33.4042 4.85795C33.7829 5.24432 34.0746 5.71402 34.2792 6.26705C34.4837 6.82008 34.586 7.44318 34.586 8.13636V8.86364H26.7905V7.13636H31.6996C31.6958 6.88636 31.6314 6.66667 31.5064 6.47727C31.3852 6.28409 31.2204 6.13447 31.0121 6.02841C30.8076 5.91856 30.5746 5.86364 30.3132 5.86364C30.0595 5.86364 29.8265 5.91856 29.6144 6.02841C29.4023 6.13447 29.2318 6.2822 29.103 6.47159C28.978 6.66098 28.9117 6.88258 28.9042 7.13636V9C28.9042 9.2803 28.9629 9.5303 29.0803 9.75C29.1977 9.9697 29.3663 10.142 29.586 10.267C29.8057 10.392 30.0708 10.4545 30.3814 10.4545C30.5973 10.4545 30.7943 10.4242 30.9723 10.3636C31.1542 10.303 31.3095 10.2159 31.4382 10.1023C31.567 9.98485 31.6617 9.8447 31.7223 9.68182H34.586C34.4875 10.2879 34.2545 10.8144 33.8871 11.2614C33.5197 11.7045 33.0329 12.0492 32.4269 12.2955C31.8246 12.5379 31.1201 12.6591 30.3132 12.6591Z" fill="black"/>
<path d="M36.9091 9.5C37.4614 9.5 37.9091 9.05228 37.9091 8.5C37.9091 7.94772 37.4614 7.5 36.9091 7.5C36.3568 7.5 35.9091 7.94772 35.9091 8.5C35.9091 9.05228 36.3568 9.5 36.9091 9.5Z" fill="black"/>
<path d="M42.9091 12.6591C41.9621 12.6591 41.1515 12.4716 40.4773 12.0966C39.803 11.7178 39.286 11.1913 38.9261 10.517C38.5663 9.83902 38.3864 9.05303 38.3864 8.15909C38.3864 7.26515 38.5663 6.48106 38.9261 5.80682C39.286 5.12879 39.803 4.60227 40.4773 4.22727C41.1515 3.84848 41.9621 3.65909 42.9091 3.65909C43.7652 3.65909 44.5057 3.81439 45.1307 4.125C45.7595 4.43182 46.2462 4.86742 46.5909 5.43182C46.9356 5.99242 47.1099 6.65152 47.1136 7.40909H44.2046C44.1629 6.95076 44.0303 6.60227 43.8068 6.36364C43.5871 6.12121 43.303 6 42.9546 6C42.6818 6 42.4432 6.07955 42.2386 6.23864C42.0341 6.39394 41.875 6.63068 41.7614 6.94886C41.6477 7.26326 41.5909 7.65909 41.5909 8.13636C41.5909 8.61364 41.6477 9.01136 41.7614 9.32955C41.875 9.64394 42.0341 9.88068 42.2386 10.0398C42.4432 10.1951 42.6818 10.2727 42.9546 10.2727C43.1856 10.2727 43.3902 10.2197 43.5682 10.1136C43.7462 10.0038 43.8902 9.8447 44 9.63636C44.1136 9.42424 44.1818 9.16667 44.2046 8.86364H47.1136C47.1023 9.63258 46.9261 10.303 46.5852 10.875C46.2443 11.4432 45.7614 11.8826 45.1364 12.1932C44.5152 12.5038 43.7727 12.6591 42.9091 12.6591ZM55.9231 3.77273L52.9913 12.5H49.355L46.4231 3.77273H49.7186L51.1277 9.54545H51.2186L52.6277 3.77273H55.9231Z" fill="black"/>
</svg>
