<svg width="72" height="16" viewBox="0 0 72 16" fill="none" xmlns="http://www.w3.org/2000/svg">
<path d="M12 0H4C1.79086 0 0 1.79086 0 4V12C0 14.2091 1.79086 16 4 16H12C14.2091 16 16 14.2091 16 12V4C16 1.79086 14.2091 0 12 0Z" fill="black"/>
<path d="M11.8791 4.03762L5.77422 3.01081C5.57837 2.97799 5.37686 3.02059 5.21399 3.12926C5.05112 3.23793 4.94023 3.40376 4.90571 3.59029L3.51132 11.1351C3.49427 11.2275 3.4965 11.3222 3.5179 11.4138C3.53929 11.5055 3.57943 11.5921 3.63601 11.669C3.6926 11.7458 3.76452 11.8112 3.84768 11.8616C3.93083 11.9119 4.02358 11.9462 4.12063 11.9623L10.2255 12.9891C10.3226 13.0055 10.4221 13.0034 10.5183 12.983C10.6145 12.9627 10.7056 12.9245 10.7863 12.8706C10.867 12.8166 10.9358 12.7481 10.9886 12.6689C11.0415 12.5896 11.0775 12.5013 11.0945 12.4088L12.4888 4.86398C12.523 4.67738 12.478 4.48549 12.3636 4.33053C12.2493 4.17556 12.075 4.0702 11.8791 4.03762ZM10.3548 12.2856L4.24953 11.2587L5.64392 3.71395L11.7488 4.74076L10.3548 12.2856ZM6.18714 4.89344C6.20451 4.80021 6.26004 4.71737 6.34151 4.66312C6.42299 4.60887 6.52374 4.58766 6.62163 4.60415L10.5119 5.25818C10.6043 5.27361 10.6873 5.3215 10.7445 5.3924C10.8017 5.4633 10.8289 5.55205 10.8207 5.64112C10.8125 5.73018 10.7696 5.81308 10.7003 5.87344C10.6311 5.9338 10.5406 5.96723 10.4467 5.96712C10.4247 5.96709 10.4028 5.9653 10.3811 5.96177L6.49086 5.30729C6.39298 5.29074 6.30601 5.23786 6.24906 5.16025C6.1921 5.08265 6.16983 4.98668 6.18714 4.89344ZM5.92748 6.30061C5.93603 6.25441 5.95405 6.21026 5.98051 6.1707C6.00697 6.13113 6.04136 6.09691 6.08171 6.07001C6.12206 6.0431 6.16757 6.02403 6.21566 6.01388C6.26375 6.00374 6.31347 6.00271 6.36197 6.01087L10.2522 6.66535C10.3453 6.68018 10.4291 6.72792 10.4869 6.79903C10.5447 6.87014 10.5721 6.95939 10.5639 7.04895C10.5556 7.13852 10.5121 7.22182 10.4422 7.28221C10.3723 7.3426 10.281 7.37564 10.1866 7.37474C10.1644 7.37478 10.1423 7.37284 10.1205 7.36894L6.23026 6.71491C6.13246 6.69816 6.04564 6.64512 5.98887 6.56744C5.93209 6.48976 5.91002 6.39379 5.92748 6.30061ZM5.66735 7.70734C5.68505 7.61435 5.74071 7.53184 5.82215 7.47787C5.90358 7.4239 6.00416 7.40287 6.10184 7.41938L8.04602 7.74484C8.13843 7.76026 8.22142 7.80812 8.2786 7.87897C8.33578 7.94982 8.36299 8.03852 8.35487 8.12755C8.34675 8.21658 8.30388 8.29948 8.23473 8.35987C8.16557 8.42027 8.07516 8.45378 7.98134 8.45378C7.95934 8.45377 7.93739 8.45198 7.91572 8.44842L5.9706 8.12118C5.87281 8.10454 5.78595 8.05161 5.72909 7.97401C5.67224 7.89642 5.65003 7.80051 5.66735 7.70734Z" fill="#EDEDE9"/>
<path d="M27.5909 5.27273L24.6591 14H21.0227L18.0909 5.27273H21.3864L22.7955 11.0455H22.8864L24.2955 5.27273H27.5909ZM26.883 14V5.27273H30.0193V14H26.883ZM28.4511 4.36364C28.0269 4.36364 27.6633 4.22348 27.3602 3.94318C27.0572 3.66288 26.9057 3.32576 26.9057 2.93182C26.9057 2.53788 27.0572 2.20076 27.3602 1.92045C27.6633 1.64015 28.0269 1.5 28.4511 1.5C28.8792 1.5 29.2428 1.64015 29.542 1.92045C29.8451 2.20076 29.9966 2.53788 29.9966 2.93182C29.9966 3.32576 29.8451 3.66288 29.542 3.94318C29.2428 4.22348 28.8792 4.36364 28.4511 4.36364ZM35.2219 5.27273V7.54545H29.4719V5.27273H35.2219ZM30.5855 3.18182H33.7219V11.1932C33.7219 11.3144 33.7427 11.4167 33.7844 11.5C33.826 11.5795 33.8904 11.6402 33.9776 11.6818C34.0647 11.7197 34.1764 11.7386 34.3128 11.7386C34.4075 11.7386 34.5173 11.7273 34.6423 11.7045C34.7711 11.6818 34.8658 11.6629 34.9264 11.6477L35.381 13.8523C35.2408 13.8939 35.0401 13.9451 34.7787 14.0057C34.5211 14.0663 34.2143 14.1061 33.8582 14.125C33.1385 14.1629 32.5344 14.089 32.0457 13.9034C31.5571 13.714 31.1897 13.4167 30.9435 13.0114C30.6973 12.6061 30.5779 12.0985 30.5855 11.4886V3.18182ZM38.9898 14.1591C38.058 14.1591 37.2549 13.9811 36.5807 13.625C35.9102 13.2652 35.3932 12.75 35.0295 12.0795C34.6697 11.4053 34.4898 10.5985 34.4898 9.65909C34.4898 8.75758 34.6716 7.9697 35.0352 7.29545C35.3989 6.62121 35.9121 6.09659 36.575 5.72159C37.2379 5.34659 38.0201 5.15909 38.9216 5.15909C39.5807 5.15909 40.1773 5.26136 40.7114 5.46591C41.2455 5.67045 41.7019 5.9678 42.0807 6.35795C42.4595 6.74432 42.7511 7.21402 42.9557 7.76705C43.1602 8.32008 43.2625 8.94318 43.2625 9.63636V10.3636H35.467V8.63636H40.3761C40.3723 8.38636 40.308 8.16667 40.183 7.97727C40.0617 7.78409 39.897 7.63447 39.6886 7.52841C39.4841 7.41856 39.2511 7.36364 38.9898 7.36364C38.736 7.36364 38.503 7.41856 38.2909 7.52841C38.0788 7.63447 37.9083 7.7822 37.7795 7.97159C37.6545 8.16098 37.5883 8.38258 37.5807 8.63636V10.5C37.5807 10.7803 37.6394 11.0303 37.7568 11.25C37.8742 11.4697 38.0428 11.642 38.2625 11.767C38.4822 11.892 38.7473 11.9545 39.058 11.9545C39.2739 11.9545 39.4708 11.9242 39.6489 11.8636C39.8307 11.803 39.986 11.7159 40.1148 11.6023C40.2436 11.4848 40.3383 11.3447 40.3989 11.1818H43.2625C43.164 11.7879 42.9311 12.3144 42.5636 12.7614C42.1962 13.2045 41.7095 13.5492 41.1034 13.7955C40.5011 14.0379 39.7966 14.1591 38.9898 14.1591ZM47.1241 14.1591C46.1923 14.1591 45.3893 13.9811 44.7151 13.625C44.0446 13.2652 43.5276 12.75 43.1639 12.0795C42.8041 11.4053 42.6241 10.5985 42.6241 9.65909C42.6241 8.75758 42.806 7.9697 43.1696 7.29545C43.5332 6.62121 44.0465 6.09659 44.7094 5.72159C45.3723 5.34659 46.1545 5.15909 47.056 5.15909C47.7151 5.15909 48.3116 5.26136 48.8457 5.46591C49.3798 5.67045 49.8363 5.9678 50.2151 6.35795C50.5938 6.74432 50.8855 7.21402 51.0901 7.76705C51.2946 8.32008 51.3969 8.94318 51.3969 9.63636V10.3636H43.6014V8.63636H48.5105C48.5067 8.38636 48.4423 8.16667 48.3173 7.97727C48.1961 7.78409 48.0313 7.63447 47.823 7.52841C47.6185 7.41856 47.3855 7.36364 47.1241 7.36364C46.8704 7.36364 46.6374 7.41856 46.4253 7.52841C46.2132 7.63447 46.0427 7.7822 45.9139 7.97159C45.7889 8.16098 45.7226 8.38258 45.7151 8.63636V10.5C45.7151 10.7803 45.7738 11.0303 45.8912 11.25C46.0086 11.4697 46.1772 11.642 46.3969 11.767C46.6166 11.892 46.8817 11.9545 47.1923 11.9545C47.4082 11.9545 47.6052 11.9242 47.7832 11.8636C47.9651 11.803 48.1204 11.7159 48.2491 11.6023C48.3779 11.4848 48.4726 11.3447 48.5332 11.1818H51.3969C51.2984 11.7879 51.0654 12.3144 50.698 12.7614C50.3306 13.2045 49.8438 13.5492 49.2378 13.7955C48.6355 14.0379 47.931 14.1591 47.1241 14.1591ZM52.7812 14.1818C52.3419 14.1818 51.965 14.0284 51.6506 13.7216C51.34 13.411 51.1866 13.0341 51.1903 12.5909C51.1866 12.1591 51.34 11.7898 51.6506 11.483C51.965 11.1761 52.3419 11.0227 52.7812 11.0227C53.1979 11.0227 53.5653 11.1761 53.8835 11.483C54.2055 11.7898 54.3684 12.1591 54.3722 12.5909C54.3684 12.8864 54.2907 13.1553 54.1392 13.3977C53.9915 13.6364 53.7983 13.8277 53.5597 13.9716C53.321 14.1117 53.0616 14.1818 52.7812 14.1818ZM58.6813 14.1591C57.7343 14.1591 56.9237 13.9716 56.2494 13.5966C55.5752 13.2178 55.0581 12.6913 54.6983 12.017C54.3384 11.339 54.1585 10.553 54.1585 9.65909C54.1585 8.76515 54.3384 7.98106 54.6983 7.30682C55.0581 6.62879 55.5752 6.10227 56.2494 5.72727C56.9237 5.34848 57.7343 5.15909 58.6813 5.15909C59.5373 5.15909 60.2778 5.31439 60.9028 5.625C61.5316 5.93182 62.0184 6.36742 62.3631 6.93182C62.7078 7.49242 62.882 8.15152 62.8858 8.90909H59.9767C59.935 8.45076 59.8025 8.10227 59.579 7.86364C59.3593 7.62121 59.0752 7.5 58.7267 7.5C58.454 7.5 58.2153 7.57955 58.0108 7.73864C57.8063 7.89394 57.6472 8.13068 57.5335 8.44886C57.4199 8.76326 57.3631 9.15909 57.3631 9.63636C57.3631 10.1136 57.4199 10.5114 57.5335 10.8295C57.6472 11.1439 57.8063 11.3807 58.0108 11.5398C58.2153 11.6951 58.454 11.7727 58.7267 11.7727C58.9578 11.7727 59.1623 11.7197 59.3403 11.6136C59.5184 11.5038 59.6623 11.3447 59.7722 11.1364C59.8858 10.9242 59.954 10.6667 59.9767 10.3636H62.8858C62.8744 11.1326 62.6983 11.803 62.3574 12.375C62.0165 12.9432 61.5335 13.3826 60.9085 13.6932C60.2873 14.0038 59.5449 14.1591 58.6813 14.1591ZM71.3753 5.27273L68.4435 14H64.8071L61.8753 5.27273H65.1707L66.5798 11.0455H66.6707L68.0798 5.27273H71.3753Z" fill="black"/>
</svg>
